<?xml version="1.0" encoding="utf-8"?>
<!-- Generator: Adobe Illustrator 25.4.1, SVG Export Plug-In . SVG Version: 6.00 Build 0)  -->
<svg version="1.1" id="レイヤー_1" xmlns="http://www.w3.org/2000/svg" xmlns:xlink="http://www.w3.org/1999/xlink" x="0px"
	 y="0px" viewBox="0 0 12 19" style="enable-background:new 0 0 12 19;" xml:space="preserve">
<style type="text/css">
	.st0{enable-background:new    ;}
	.st1{fill:#FFFFFF;}
</style>
<g class="st0">
	<path class="st1" d="M0.8,9.1h5.7c0.7,0,1.3,0,1.8,0s1,0.1,1.4,0.1l1,0.5l-1,0.5c-0.4,0-0.8,0.1-1.4,0.1c-0.5,0-1.1,0-1.8,0H0.8
		V9.1z M5.7,5.2l1-0.8c0.5,0.8,1,1.6,1.5,2.2s1,1.2,1.5,1.7s1.1,0.9,1.7,1.4v0.1c-0.6,0.4-1.2,0.9-1.7,1.4s-1,1-1.5,1.7
		c-0.5,0.6-1,1.4-1.5,2.2l-1-0.8C6.1,13.6,6.6,13,7,12.5s0.9-1,1.3-1.4c0.4-0.4,0.9-0.7,1.3-1c0.4-0.3,0.8-0.4,1.2-0.5V10
		C10.4,9.9,10,9.7,9.6,9.5s-0.8-0.6-1.3-1C7.9,8.1,7.5,7.6,7,7.1C6.6,6.5,6.1,5.9,5.7,5.2z"/>
</g>
</svg>
