<svg xmlns="http://www.w3.org/2000/svg" xmlns:xlink="http://www.w3.org/1999/xlink" width="43.482" height="43.481" viewBox="0 0 43.482 43.481">
  <defs>
    <clipPath id="clip-path">
      <rect id="長方形_188" data-name="長方形 188" width="43.482" height="43.482" fill="#fff" stroke="#707070" stroke-width="1"/>
    </clipPath>
  </defs>
  <g id="マスクグループ_4" data-name="マスクグループ 4" clip-path="url(#clip-path)">
    <path id="Icon_awesome-twitter" data-name="Icon awesome-twitter" d="M37.022,11.876c.026.373.026.746.026,1.119,0,11.371-8.509,24.473-24.061,24.473A23.607,23.607,0,0,1,0,33.606a17.2,17.2,0,0,0,2.042.106,16.756,16.756,0,0,0,10.5-3.675,8.491,8.491,0,0,1-7.907-5.965,10.49,10.49,0,0,0,1.6.133,8.8,8.8,0,0,0,2.225-.293,8.568,8.568,0,0,1-6.781-8.442v-.106A8.409,8.409,0,0,0,5.5,16.456,8.712,8.712,0,0,1,2.88,4.952a23.907,23.907,0,0,0,17.437,9,9.87,9.87,0,0,1-.209-1.971,8.526,8.526,0,0,1,8.457-8.6A8.371,8.371,0,0,1,34.744,6.1,16.48,16.48,0,0,0,40.111,4.02a8.554,8.554,0,0,1-3.718,4.74,16.729,16.729,0,0,0,4.87-1.331,18.352,18.352,0,0,1-4.241,4.447Z" transform="translate(1.794 2.001)" fill="#fff"/>
  </g>
</svg>
