<?xml version="1.0" encoding="utf-8"?>
<!-- Generator: Adobe Illustrator 25.4.1, SVG Export Plug-In . SVG Version: 6.00 Build 0)  -->
<svg version="1.1" id="レイヤー_1" xmlns="http://www.w3.org/2000/svg" xmlns:xlink="http://www.w3.org/1999/xlink" x="0px"
	 y="0px" viewBox="0 0 35 35" style="enable-background:new 0 0 35 35;" xml:space="preserve">
<style type="text/css">
	.st0{fill:#C40001;}
</style>
<g>
	<g id="マスクグループ_5">
		<path id="Icon_awesome-twitter" class="st0" d="M31.1,11.1c0,0.3,0,0.6,0,0.9c0,9.1-6.8,19.6-19.3,19.6c-3.7,0-7.3-1.1-10.4-3.1
			c0.5,0.1,1.1,0.1,1.6,0.1c3.1,0,6-1,8.4-2.9c-2.9-0.1-5.5-2-6.3-4.8C5.6,21,6,21,6.4,21c0.6,0,1.2-0.1,1.8-0.2
			C5,20.1,2.8,17.3,2.8,14v-0.1c0.9,0.5,2,0.8,3.1,0.9c-3-2.1-3.9-6.1-2.1-9.2c3.4,4.3,8.5,6.9,14,7.2c-0.1-0.5-0.2-1-0.2-1.6
			c0-3.8,3-6.9,6.8-6.9c0,0,0,0,0,0c1.9,0,3.7,0.8,5,2.2c1.5-0.3,3-0.9,4.3-1.7c-0.5,1.6-1.6,2.9-3,3.8c1.3-0.2,2.7-0.5,3.9-1.1
			C33.6,8.9,32.4,10.1,31.1,11.1L31.1,11.1z"/>
	</g>
</g>
</svg>
