<?xml version="1.0" encoding="utf-8"?>
<!-- Generator: Adobe Illustrator 25.4.1, SVG Export Plug-In . SVG Version: 6.00 Build 0)  -->
<svg version="1.1" id="レイヤー_1" xmlns="http://www.w3.org/2000/svg" xmlns:xlink="http://www.w3.org/1999/xlink" x="0px"
	 y="0px" viewBox="0 0 43.5 43.5" style="enable-background:new 0 0 43.5 43.5;" xml:space="preserve">
<style type="text/css">
	.st0{fill:#C40001;}
</style>
<g>
	<g id="マスクグループ_4">
		<path id="Icon_awesome-twitter" class="st0" d="M38.8,13.9c0,0.4,0,0.7,0,1.1c0,11.4-8.5,24.5-24.1,24.5c-4.6,0-9.1-1.3-13-3.9
			c0.7,0.1,1.4,0.1,2,0.1c3.8,0,7.5-1.3,10.5-3.7c-3.6-0.1-6.8-2.5-7.9-6C7,26.2,7.5,26.2,8,26.2c0.8,0,1.5-0.1,2.2-0.3
			c-4-0.8-6.8-4.4-6.8-8.4v-0.1c1.2,0.7,2.5,1,3.8,1.1C3.6,15.9,2.4,10.9,4.7,7c4.3,5.4,10.6,8.6,17.4,9c-0.1-0.6-0.2-1.3-0.2-2
			c0-4.7,3.7-8.6,8.5-8.6c0,0,0,0,0,0c2.4,0,4.6,1,6.2,2.7C38.4,7.7,40.3,7,41.9,6c-0.6,2-1.9,3.7-3.7,4.7c1.7-0.2,3.3-0.6,4.9-1.3
			C41.9,11.1,40.5,12.6,38.8,13.9z"/>
	</g>
</g>
</svg>
