<?xml version="1.0" encoding="utf-8"?>
<!-- Generator: Adobe Illustrator 25.4.1, SVG Export Plug-In . SVG Version: 6.00 Build 0)  -->
<svg version="1.1" id="レイヤー_1" xmlns="http://www.w3.org/2000/svg" xmlns:xlink="http://www.w3.org/1999/xlink" x="0px"
	 y="0px" viewBox="0 0 35 35" style="enable-background:new 0 0 35 35;" xml:space="preserve">
<style type="text/css">
	.st0{fill:#FFFFFF;}
</style>
<g id="グループ_59" transform="translate(170.966 2261)">
	<path id="Icon_awesome-youtube" class="st0" d="M-137.6-2251.3c-0.4-1.4-1.5-2.5-2.9-2.9c-2.6-0.7-12.9-0.7-12.9-0.7
		s-10.3,0-12.9,0.7c-1.4,0.4-2.5,1.5-2.9,2.9c-0.5,2.6-0.7,5.2-0.7,7.8c0,2.6,0.2,5.2,0.7,7.8c0.4,1.4,1.5,2.5,2.9,2.8
		c2.6,0.7,12.9,0.7,12.9,0.7s10.3,0,12.9-0.7c1.4-0.3,2.5-1.4,2.9-2.8c0.5-2.6,0.7-5.2,0.7-7.8
		C-136.9-2246.1-137.1-2248.7-137.6-2251.3z M-156.9-2238.7v-9.6l8.6,4.8C-148.2-2243.5-156.9-2238.7-156.9-2238.7z"/>
</g>
</svg>
