<?xml version="1.0" encoding="utf-8"?>
<!-- Generator: Adobe Illustrator 25.4.1, SVG Export Plug-In . SVG Version: 6.00 Build 0)  -->
<svg version="1.1" id="レイヤー_1" xmlns="http://www.w3.org/2000/svg" xmlns:xlink="http://www.w3.org/1999/xlink" x="0px"
	 y="0px" viewBox="0 0 30 30" style="enable-background:new 0 0 30 30;" xml:space="preserve">
<style type="text/css">
	.st0{fill:#C40001;}
</style>
<g>
	<g id="グループ_222">
		<path id="パス_440" class="st0" d="M21.1,3.6c2.9,0,5.3,2.4,5.3,5.3v12.1c0,2.9-2.4,5.3-5.3,5.3H8.9c-2.9,0-5.3-2.4-5.3-5.3V8.9
			C3.6,6,6,3.6,8.9,3.6H21.1z M21.1,0H8.9C4,0,0,4,0,8.9v12.1C0,26,4,30,8.9,30h12.1c4.9,0,8.9-4,8.9-8.9V8.9C30,4,26,0,21.1,0"/>
		<path id="パス_441" class="st0" d="M23,5.1c-1.1,0-1.9,0.9-1.9,1.9s0.9,1.9,1.9,1.9c1.1,0,1.9-0.9,1.9-1.9S24,5.1,23,5.1L23,5.1
			"/>
		<path id="パス_442" class="st0" d="M15,10.6c2.4,0,4.4,2,4.4,4.4s-2,4.4-4.4,4.4s-4.4-2-4.4-4.4C10.6,12.6,12.6,10.6,15,10.6
			 M15,7c-4.4,0-8,3.6-8,8c0,4.4,3.6,8,8,8c4.4,0,8-3.6,8-8C23,10.6,19.4,7,15,7"/>
	</g>
</g>
</svg>
