<?xml version="1.0" encoding="utf-8"?>
<!-- Generator: Adobe Illustrator 25.4.1, SVG Export Plug-In . SVG Version: 6.00 Build 0)  -->
<svg version="1.1" id="レイヤー_1" xmlns="http://www.w3.org/2000/svg" xmlns:xlink="http://www.w3.org/1999/xlink" x="0px"
	 y="0px" viewBox="0 0 90 29" style="enable-background:new 0 0 90 29;" xml:space="preserve">
<style type="text/css">
	.st0{fill:none;}
	.st1{fill:none;stroke:#C40001;}
	.st2{fill:#C40001;}
	.st3{enable-background:new    ;}
	.st4{fill:#FFFFFF;}
</style>
<g id="グループ_83" transform="translate(269.243 20)">
	<g id="長方形_192" transform="translate(-0.265)">
		<rect x="-269" y="-20" class="st0" width="90" height="29"/>
		<rect x="-268.5" y="-19.5" class="st1" width="89" height="28"/>
	</g>
	<g id="長方形_193" transform="translate(-0.265)">
		<rect x="-269" y="-20" class="st2" width="46" height="29"/>
		<rect x="-268.5" y="-19.5" class="st1" width="45" height="28"/>
	</g>
</g>
<g class="st3">
	<path class="st4" d="M15.9,9.5v7.2c0,1.1-0.3,2-0.9,2.6s-1.5,0.9-2.5,0.9c-1.1,0-2-0.3-2.7-0.9s-1-1.5-1-2.7h2.5
		c0,0.4,0.1,0.8,0.3,1c0.2,0.2,0.4,0.3,0.8,0.3c0.3,0,0.5-0.1,0.7-0.3s0.3-0.5,0.3-0.9V9.5C13.4,9.5,15.9,9.5,15.9,9.5z"/>
	<path class="st4" d="M25.5,14.5c-0.3,0.5-0.7,0.9-1.3,1.2c-0.6,0.3-1.3,0.5-2.2,0.5h-1.6V20h-2.6V9.5H22c0.8,0,1.5,0.1,2.1,0.4
		s1,0.7,1.3,1.2s0.4,1.1,0.4,1.8C25.9,13.5,25.8,14,25.5,14.5z M23,13.8c0.2-0.2,0.4-0.6,0.4-1s-0.1-0.7-0.4-1
		c-0.2-0.2-0.6-0.3-1.1-0.3h-1.4v2.6h1.4C22.4,14.2,22.7,14.1,23,13.8z"/>
	<path class="st4" d="M36.7,20h-2.6l-4.3-6.5V20h-2.6V9.5h2.6l4.3,6.5V9.5h2.6V20z"/>
</g>
<g class="st3">
	<path class="st2" d="M56.1,11.5v2.1h3.4v2h-3.4v2.3H60V20h-6.4V9.5H60v2.1h-3.9V11.5z"/>
	<path class="st2" d="M71,20h-2.6l-4.3-6.5V20h-2.6V9.5h2.6l4.3,6.5V9.5H71V20z"/>
	<path class="st2" d="M79.9,12.8c-0.2-0.3-0.5-0.6-0.8-0.8c-0.4-0.2-0.8-0.3-1.3-0.3c-0.8,0-1.5,0.3-2,0.8S75,13.8,75,14.7
		c0,1,0.3,1.7,0.8,2.3c0.5,0.5,1.2,0.8,2.2,0.8c0.6,0,1.2-0.2,1.6-0.5s0.8-0.8,1-1.4h-3.3V14h5.6v2.4c-0.2,0.6-0.5,1.2-1,1.8
		c-0.5,0.5-1,1-1.7,1.3S78.7,20,77.8,20c-1,0-2-0.2-2.8-0.7s-1.5-1.1-1.9-1.9c-0.5-0.8-0.7-1.7-0.7-2.8s0.2-2,0.7-2.8
		s1.1-1.5,1.9-1.9s1.7-0.7,2.8-0.7c1.3,0,2.3,0.3,3.2,0.9c0.9,0.6,1.4,1.5,1.7,2.5h-2.8V12.8z"/>
</g>
</svg>
