<?xml version="1.0" encoding="utf-8"?>
<!-- Generator: Adobe Illustrator 25.4.1, SVG Export Plug-In . SVG Version: 6.00 Build 0)  -->
<svg version="1.1" id="レイヤー_1" xmlns="http://www.w3.org/2000/svg" xmlns:xlink="http://www.w3.org/1999/xlink" x="0px"
	 y="0px" viewBox="0 0 90 29" style="enable-background:new 0 0 90 29;" xml:space="preserve">
<style type="text/css">
	.st0{fill:none;}
	.st1{fill:none;stroke:#FFFFFF;}
	.st2{fill:#FFFFFF;}
	.st3{enable-background:new    ;}
</style>
<g id="言語切り替え" transform="translate(-268.978 -20)">
	<g id="グループ_83" transform="translate(269.243 20)">
		<g id="長方形_192" transform="translate(-0.265)">
			<rect x="0" class="st0" width="90" height="29"/>
			<rect x="0.5" y="0.5" class="st1" width="89" height="28"/>
		</g>
		<g id="長方形_193" transform="translate(-0.265)">
			<rect x="0" class="st2" width="46" height="29"/>
			<rect x="0.5" y="0.5" class="st1" width="45" height="28"/>
		</g>
	</g>
	<g class="st3">
		<path d="M284.9,29.5v7.2c0,1.1-0.3,2-0.9,2.6s-1.5,0.9-2.5,0.9c-1.1,0-2-0.3-2.7-0.9s-1-1.5-1-2.7h2.5c0,0.4,0.1,0.8,0.3,1
			c0.2,0.2,0.4,0.3,0.8,0.3c0.3,0,0.5-0.1,0.7-0.3c0.2-0.2,0.3-0.5,0.3-0.9v-7.2H284.9z"/>
		<path d="M294.5,34.5c-0.3,0.5-0.7,0.9-1.3,1.2c-0.6,0.3-1.3,0.5-2.2,0.5h-1.6V40h-2.6V29.5h4.2c0.8,0,1.5,0.1,2.1,0.4
			s1,0.7,1.3,1.2c0.3,0.5,0.4,1.1,0.4,1.8C294.9,33.5,294.8,34,294.5,34.5z M292,33.8c0.2-0.2,0.4-0.6,0.4-1s-0.1-0.7-0.4-1
			c-0.2-0.2-0.6-0.3-1.1-0.3h-1.4v2.6h1.4C291.4,34.2,291.7,34.1,292,33.8z"/>
		<path d="M305.7,40h-2.6l-4.3-6.5V40h-2.6V29.5h2.6l4.3,6.5v-6.5h2.6V40z"/>
	</g>
	<g class="st3">
		<path class="st2" d="M325.1,31.5v2.1h3.4v2h-3.4v2.3h3.9V40h-6.4V29.5h6.4v2.1H325.1z"/>
		<path class="st2" d="M340,40h-2.6l-4.3-6.5V40h-2.6V29.5h2.6l4.3,6.5v-6.5h2.6V40z"/>
		<path class="st2" d="M348.9,32.8c-0.2-0.3-0.5-0.6-0.8-0.8c-0.4-0.2-0.8-0.3-1.3-0.3c-0.8,0-1.5,0.3-2,0.8
			c-0.5,0.5-0.8,1.3-0.8,2.2c0,1,0.3,1.7,0.8,2.3c0.5,0.5,1.2,0.8,2.2,0.8c0.6,0,1.2-0.2,1.6-0.5c0.4-0.3,0.8-0.8,1-1.4h-3.3v-1.9
			h5.6v2.4c-0.2,0.6-0.5,1.2-1,1.8c-0.5,0.5-1,1-1.7,1.3s-1.5,0.5-2.4,0.5c-1,0-2-0.2-2.8-0.7c-0.8-0.5-1.5-1.1-1.9-1.9
			c-0.5-0.8-0.7-1.7-0.7-2.8s0.2-2,0.7-2.8c0.5-0.8,1.1-1.5,1.9-1.9s1.7-0.7,2.8-0.7c1.3,0,2.3,0.3,3.2,0.9c0.9,0.6,1.4,1.5,1.7,2.5
			H348.9z"/>
	</g>
</g>
</svg>
