<svg xmlns="http://www.w3.org/2000/svg" xmlns:xlink="http://www.w3.org/1999/xlink" width="240" height="37.461" viewBox="0 0 240 37.461">
  <defs>
    <clipPath id="clip-path">
      <rect id="長方形_214" data-name="長方形 214" width="240" height="37.461" fill="none"/>
    </clipPath>
  </defs>
  <g id="logo" clip-path="url(#clip-path)">
    <path id="パス_93" data-name="パス 93" d="M70.827,3.92C70.827,2.107,69.713.9,66.882.3A14.724,14.724,0,0,0,63.829.013H53.521l-.064,37.448h7.59V23.773h.292c6.568,0,9.488-1.248,9.488-4.068Zm-7.59,13.273A1.036,1.036,0,0,1,62.2,18.229H61.047V5.366H62.2A1.036,1.036,0,0,1,63.237,6.4Z" transform="translate(-27.107 -0.007)" fill="#fff"/>
    <path id="パス_94" data-name="パス 94" d="M451.431.013,447.86,37.461h8.025l.185-5.687H458.9l.186,5.687h8.024L463.4.013Zm5,24.326c.307-5.351,1.119-19.619,1.119-20.587l1,20.587Z" transform="translate(-227.105 -0.007)" fill="#fff"/>
    <path id="パス_95" data-name="パス 95" d="M14.133.013H.067V5.541H6.129L0,37.461H14.027V32.133H7.965Z" transform="translate(0 -0.007)" fill="#fff"/>
    <rect id="長方形_213" data-name="長方形 213" width="7.689" height="37.448" transform="translate(16.054 0.006)" fill="#fff"/>
    <path id="パス_96" data-name="パス 96" d="M90.531.013,86.96,37.461h8.025l.185-5.687H98l.186,5.687h8.024L102.5.013Zm5,24.326C95.837,18.988,96.65,4.72,96.65,3.752l1,20.587Z" transform="translate(-44.096 -0.007)" fill="#fff"/>
    <path id="パス_97" data-name="パス 97" d="M186.523.013H179.85a8.394,8.394,0,0,0-2.027.226c-2.225.554-3.514,1.611-3.514,3.355v32a1.709,1.709,0,0,0,.563,1.347,2.262,2.262,0,0,0,1.522.516h7.1a1.466,1.466,0,0,0,1.326-.94,1.539,1.539,0,0,1,1.25.94h5.464V18.016h-8.484v5.264h1.04v8.353c0,.326,0,.76-1.168.76s-1.168-.434-1.168-.76V6.042c0-.325,0-.76,1.168-.76s1.168.434,1.168.76v8.875h7.444V3.594c0-1.642-.7-2.675-2.578-3.252a8.247,8.247,0,0,0-2.432-.329" transform="translate(-88.39 -0.007)" fill="#fff"/>
    <path id="パス_98" data-name="パス 98" d="M354.875.013H344.521l-.064,37.449h7.59v-13.7h.292c6.568,0,9.488-1.248,9.488-4.068V3.91c0-1.755-1.045-2.94-3.679-3.559a14.29,14.29,0,0,0-3.274-.338m-.638,17.17a1.036,1.036,0,0,1-1.036,1.036h-1.154V5.355H353.2a1.036,1.036,0,0,1,1.036,1.036Z" transform="translate(-174.671 -0.007)" fill="#fff"/>
    <path id="パス_99" data-name="パス 99" d="M141.73.013l.218,29.95L139.682.069c0-.021-.031-.039-.064-.056H128.059a.156.156,0,0,0-.052.11V37.461h6.431l.648-29.154,1.82,29.154H148.88V.123a.154.154,0,0,0-.052-.11Z" transform="translate(-64.911 -0.007)" fill="#fff"/>
    <path id="パス_100" data-name="パス 100" d="M426.666,21.349c-.015-2.169-3.577-2.712-3.577-2.712,3.065-.272,3.577-1.356,3.577-2.929V3.921c0-1.825-1.044-2.99-3.558-3.585A13.483,13.483,0,0,0,420,.013h-10.6l-.11.11V37.461h7.59V21.146h.73c1.606,0,1.46.379,1.46,1.247V35.411c0,.722.007,1.834.667,2.05h7.667a3.249,3.249,0,0,1-.745-2.5Zm-9.05-5.742h-.73V4.643h.73c1.606,0,1.46.488,1.46.922v8.956c0,.6.146,1.085-1.46,1.085" transform="translate(-207.55 -0.007)" fill="#fff"/>
    <path id="パス_101" data-name="パス 101" d="M394.195,5.131c.019,0,.033-2.408.052-2.408V.013H381.842a.152.152,0,0,0-.052.11V37.461h12.457v-2.51c-.019,0-.033-2.408-.052-2.408H389.38V19.826h4.127V13.088H389.38V5.131Z" transform="translate(-193.602 -0.007)" fill="#fff"/>
    <path id="パス_102" data-name="パス 102" d="M310.952,32.392h0c-1.168,0-1.168-.434-1.168-.76V6.042c0-.325,0-.76,1.168-.76h0V.013h-3.335a8.623,8.623,0,0,0-2.7.387c-1.785.588-2.577,1.606-2.577,3.194V34.08a2.949,2.949,0,0,0,1.77,2.871,5.32,5.32,0,0,0,2.395.511h4.45Z" transform="translate(-153.312 -0.007)" fill="#fff"/>
    <path id="パス_103" data-name="パス 103" d="M323.387,32.392h0c1.168,0,1.168-.434,1.168-.76V6.042c0-.325,0-.76-1.168-.76h0V.013h3.335a8.623,8.623,0,0,1,2.7.387C331.209.988,332,2.006,332,3.594V34.08a2.949,2.949,0,0,1-1.77,2.871,5.321,5.321,0,0,1-2.4.511h-4.449Z" transform="translate(-163.986 -0.007)" fill="#fff"/>
    <path id="パス_104" data-name="パス 104" d="M260.435,36.033l-8.443,4.874v9.748L253.8,51.7l-9.3,3.829h15.936l8.443-4.874V40.907Z" transform="translate(-123.983 -18.272)" fill="#fff"/>
    <path id="パス_105" data-name="パス 105" d="M234.652,32.166l-8.424-4.906L224.414,28.3l1.375-9.967L217.767,32.1l-.037,9.748,8.424,4.906,8.461-4.842Z" transform="translate(-110.409 -9.295)" fill="#fff"/>
    <path id="パス_106" data-name="パス 106" d="M247.567,19.5l8.418-4.915-.01-2.091,8,6.1L255.938,4.833,247.472,0l-8.418,4.915.047,9.748Z" transform="translate(-121.222 0)" fill="#fff"/>
  </g>
</svg>
