<?xml version="1.0" encoding="utf-8"?>
<!-- Generator: Adobe Illustrator 25.4.1, SVG Export Plug-In . SVG Version: 6.00 Build 0)  -->
<svg version="1.1" id="レイヤー_1" xmlns="http://www.w3.org/2000/svg" xmlns:xlink="http://www.w3.org/1999/xlink" x="0px"
	 y="0px" viewBox="0 0 68 68" style="enable-background:new 0 0 68 68;" xml:space="preserve">
<style type="text/css">
	.st0{fill:#C40001;}
	.st1{clip-path:url(#SVGID_00000068641682383238782260000009413546757337048751_);}
	.st2{fill:#FFFFFF;}
</style>
<g id="tiktok" transform="translate(-243 -2245)">
	<circle id="楕円形_8" class="st0" cx="277" cy="2279" r="34"/>
	<g>
		<g>
			<g id="マスクグループ_6" transform="translate(259.223 2261)">
				<g id="グループ_61" transform="translate(5.171 3.374)">
					<g>
						<g>
							<defs>
								<rect id="SVGID_1_" x="0" y="0" width="24.5" height="28.1"/>
							</defs>
							<clipPath id="SVGID_00000045613720135882398480000004719112465009044897_">
								<use xlink:href="#SVGID_1_"  style="overflow:visible;"/>
							</clipPath>
							<g id="グループ_60" style="clip-path:url(#SVGID_00000045613720135882398480000004719112465009044897_);">
								<path id="パス_46" class="st2" d="M20.8,5.6c-1.5-1-2.6-2.6-2.9-4.4c-0.1-0.4-0.1-0.8-0.1-1.2H13v19.4
									c-0.1,2.2-2,4-4.2,3.9s-4-2-3.9-4.2s1.9-3.9,4.1-3.9c0.4,0,0.8,0.1,1.2,0.2v-4.9c-4.9-0.7-9.3,2.7-10,7.6s2.7,9.3,7.6,10
									s9.3-2.7,10-7.6c0.1-0.4,0.1-0.8,0.1-1.2V9.4c2,1.4,4.3,2.2,6.7,2.2V6.7C23.2,6.7,21.9,6.3,20.8,5.6"/>
							</g>
						</g>
					</g>
				</g>
			</g>
		</g>
	</g>
</g>
</svg>
