<?xml version="1.0" encoding="utf-8"?>
<!-- Generator: Adobe Illustrator 25.4.1, SVG Export Plug-In . SVG Version: 6.00 Build 0)  -->
<svg version="1.1" id="レイヤー_1" xmlns="http://www.w3.org/2000/svg" xmlns:xlink="http://www.w3.org/1999/xlink" x="0px"
	 y="0px" viewBox="0 0 389 30" style="enable-background:new 0 0 389 30;" xml:space="preserve">
<style type="text/css">
	.st0{fill:#FFFFFF;}
</style>
<g>
	<path id="パス_427" class="st0" d="M144.4,0L138,17.4L131.6,0h-5.8l-6.4,17.4L113.1,0h-6.7L117,29.2h4.8l6.9-18.8l6.9,18.8h4.8
		L151.1,0H144.4z"/>
	<path id="パス_428" class="st0" d="M178.7,0v11.4h-17.3V0h-6.3v29.2h6.3V17.8h17.3v11.4h6.3V0H178.7z"/>
	<g>
		<g id="グループ_212">
			<path id="パス_429" class="st0" d="M188.2,5.8c0-1,0.3-2,0.8-2.9c0.5-0.9,1.2-1.6,2.1-2.1c0.9-0.5,1.9-0.8,2.9-0.8h16.5
				c1,0,2,0.3,2.9,0.8c0.9,0.5,1.6,1.2,2.1,2.1c0.5,0.9,0.8,1.9,0.8,2.9V28h-6.1v-9h-15.9v9h-6V5.8z M210.1,6.1h-15.9v6.8h15.9
				L210.1,6.1z"/>
			<path id="パス_430" class="st0" d="M230.2,28V6.1h-11V0h28v6.1h-11V28H230.2z"/>
			<path id="パス_431" class="st0" d="M250,11.2V0.5h6v4.9c0,0.9-0.3,1.8-0.8,2.6c-0.5,0.8-1.3,1.5-2.1,2.1
				C252.1,10.7,251.1,11,250,11.2"/>
			<path id="パス_432" class="st0" d="M265,28c-1,0-2-0.3-2.9-0.8c-0.9-0.5-1.6-1.2-2.1-2.1c-0.5-0.9-0.8-1.9-0.8-2.9v-2.6h6v2.3
				h15.9V17H265c-1,0-2-0.3-2.9-0.8c-0.9-0.5-1.6-1.2-2.1-2.1c-0.5-0.9-0.8-1.9-0.8-2.9V5.8c0-1,0.3-2,0.8-2.9
				c0.5-0.9,1.2-1.6,2.1-2.1C263,0.3,264,0,265,0h16.5c1,0,2,0.3,2.9,0.8c0.9,0.5,1.6,1.2,2.1,2.1c0.5,0.9,0.8,1.9,0.8,2.9v2.6h-6.1
				V6.1h-15.9V11h16.2c1,0,2,0.3,2.9,0.8c0.9,0.5,1.6,1.2,2.1,2.1c0.5,0.9,0.8,1.9,0.8,2.9v5.5c0,1-0.3,2-0.8,2.9
				c-0.5,0.9-1.2,1.6-2.1,2.1c-0.9,0.5-1.9,0.8-2.9,0.8L265,28z"/>
		</g>
	</g>
</g>
</svg>
