<?xml version="1.0" encoding="utf-8"?>
<!-- Generator: Adobe Illustrator 25.4.1, SVG Export Plug-In . SVG Version: 6.00 Build 0)  -->
<svg version="1.1" id="レイヤー_1" xmlns="http://www.w3.org/2000/svg" xmlns:xlink="http://www.w3.org/1999/xlink" x="0px"
	 y="0px" viewBox="0 0 277 78" style="enable-background:new 0 0 277 78;" xml:space="preserve">
<style type="text/css">
	.st0{enable-background:new    ;}
	.st1{fill:#A2DDF1;}
	.st2{fill:#FFFFFF;}
	.st3{clip-path:url(#SVGID_00000145780743405483783690000005191265792676678046_);}
</style>
<g id="midashi" transform="translate(262.629 -7.419) rotate(90)">
	<g class="st0">
		<path class="st1" d="M84.4,248.3v14.3H31.9v-20.9c0-4.2,0.7-7.8,2.2-10.7c1.5-3,3.5-5.2,6.2-6.7c2.6-1.5,5.6-2.2,8.9-2.2
			c3.1,0,6,0.7,8.5,2.1l0,0c2.6,1.4,4.7,3.7,6.3,6.6c1.6,2.9,2.4,6.6,2.4,10.8v6.6H84.4z M82.4,260.6v-10.3H64.3v-8.6
			c0-3.9-0.7-7.3-2.1-9.9c-1.4-2.6-3.2-4.5-5.5-5.8l0,0c-2.3-1.3-4.8-1.9-7.5-1.9c-3,0-5.6,0.7-7.9,2c-2.3,1.3-4.1,3.3-5.4,5.8
			c-1.3,2.6-2,5.9-2,9.8v18.9H82.4z M56.5,242.6v7.7H41.8v-7.7c0-2.6,0.7-4.6,1.9-5.9c1.3-1.4,3.1-2,5.4-2c2.3,0,4.1,0.7,5.4,2l0,0
			C55.8,238,56.5,240,56.5,242.6z M54.5,248.3v-5.7c0-2.1-0.5-3.6-1.4-4.6h0c-0.9-1-2.2-1.4-4-1.4c-1.7,0-3,0.5-4,1.4
			c-0.9,1-1.4,2.5-1.4,4.6v5.7H54.5z"/>
		<path class="st1" d="M84.4,175.3v16.2L65.3,202v1.4h19.1v14.3H31.9V196c0-4.1,0.7-7.7,2.2-10.6c1.5-3,3.5-5.2,6.1-6.7
			c2.6-1.5,5.5-2.2,8.6-2.2c3.6,0,6.8,1,9.6,3c2.5,1.8,4.4,4.4,5.6,7.7L84.4,175.3z M82.4,190.3v-11.6l-19.6,11.4l-0.4-1.2
			c-1-3.5-2.8-6.1-5.2-7.9c-2.5-1.8-5.3-2.7-8.4-2.7c-2.8,0-5.3,0.7-7.6,2c-2.2,1.3-4,3.3-5.3,5.9c-1.3,2.7-2,5.9-2,9.7v19.7h48.5
			v-10.3H63.3v-4.5L82.4,190.3z M56.6,196.8v8.6H42.1v-8.6c0-2.5,0.7-4.5,1.9-5.8c1.3-1.3,3.1-2,5.3-2c2.3,0,4.1,0.7,5.4,2
			C56,192.3,56.6,194.2,56.6,196.8z M54.6,203.4v-6.6c0-2-0.5-3.4-1.4-4.4c-0.9-0.9-2.2-1.4-4-1.4c-1.7,0-2.9,0.5-3.8,1.4
			c-0.9,0.9-1.4,2.4-1.4,4.4v6.6H54.6z"/>
		<path class="st1" d="M84.9,145.9c0,4.9-1.2,9.5-3.4,13.6c-2.3,4.1-5.5,7.4-9.6,9.8c-4.1,2.4-8.8,3.6-13.9,3.6
			c-5.1,0-9.8-1.2-13.8-3.6c-4.1-2.4-7.3-5.7-9.6-9.8c-2.3-4.1-3.4-8.7-3.4-13.6c0-4.9,1.2-9.5,3.4-13.6c2.3-4.1,5.5-7.4,9.6-9.7
			c4.1-2.4,8.7-3.6,13.8-3.6c5.1,0,9.8,1.2,13.9,3.6c4.1,2.4,7.3,5.7,9.6,9.7C83.8,136.4,84.9,140.9,84.9,145.9z M33.2,145.9
			c0,4.6,1.1,8.8,3.2,12.6c2.1,3.8,5.1,6.8,8.9,9.1c3.8,2.2,8.1,3.4,12.8,3.4c4.7,0,9.1-1.1,12.8-3.4c3.8-2.2,6.8-5.3,8.9-9.1
			c2.1-3.8,3.2-8,3.2-12.6c0-4.6-1.1-8.8-3.2-12.5c-2.1-3.8-5.1-6.8-8.9-9c-3.8-2.2-8.1-3.3-12.9-3.3c-4.7,0-9.1,1.1-12.8,3.3
			c-3.8,2.2-6.7,5.2-8.8,9C34.2,137.1,33.2,141.3,33.2,145.9z M73.7,145.9c0,4.4-1.5,7.9-4.3,10.5c-2.8,2.6-6.7,3.9-11.4,3.9
			c-4.8,0-8.6-1.3-11.4-3.9c-2.8-2.6-4.3-6.1-4.3-10.5c0-4.3,1.5-7.8,4.3-10.4c2.8-2.6,6.7-3.9,11.4-3.9c4.7,0,8.5,1.3,11.3,3.9l0,0
			C72.2,138,73.7,141.5,73.7,145.9z M44.3,145.9c0,3.8,1.2,6.8,3.6,9c2.4,2.2,5.8,3.4,10.1,3.4c4.2,0,7.6-1.1,10-3.4
			c2.5-2.2,3.7-5.2,3.7-9c0-3.8-1.2-6.7-3.7-8.9l0,0c-2.5-2.2-5.8-3.4-10-3.4c-4.2,0-7.6,1.1-10,3.4
			C45.5,139.2,44.3,142.1,44.3,145.9z"/>
		<path class="st1" d="M84.4,99.9v14.3H31.9V79.3h11.9v20.6h8.7V84.4H64v15.4H84.4z M82.4,112.2v-10.3H62V86.4h-7.6v15.4H41.7V81.3
			h-7.9v30.9H82.4z"/>
		<path class="st1" d="M84.4,60.5v14.3H31.9V60.5H84.4z M82.4,72.8V62.5H33.9v10.3H82.4z"/>
		<path class="st1" d="M84.4,23.1v30.4H31.9V39.2h41V23.1H84.4z M82.4,51.5V25.1h-7.5v16.1h-41v10.3H82.4z"/>
		<path class="st1" d="M84.4-13.8v33H31.9v-33h11.9V4.9H52v-16.5h11.5V4.9h9.1v-18.6H84.4z M82.4,17.2v-29h-7.9V6.9H61.5V-9.6H54
			V6.9H41.7v-18.6h-7.9v29H82.4z"/>
	</g>
	<g id="MEMBER" transform="translate(9.419 205.897) rotate(-90)">
		<path id="パス_433" class="st2" d="M19-2L9.7,8.9L0.4-2h-6.1v27h5.9V6.9L9.7,18l9.5-11.1V25h6V-2H19z"/>
		<path id="パス_434" class="st2" d="M29.1-2v27h25.4v-5.9H35.1v-4.7h15.6V8.6H35.1V3.8h19.4V-2H29.1z"/>
		<path id="パス_435" class="st2" d="M81.6-2L72.3,8.9L63-2h-6.1v27h5.9V6.9L72.3,18l9.5-11.1V25h6V-2H81.6z"/>
		<g id="グループ_215">
			<g>
				<defs>
					<rect id="SVGID_1_" x="-5.7" y="-2" width="184.5" height="27"/>
				</defs>
				<clipPath id="SVGID_00000037654104523108353700000012547974959553819552_">
					<use xlink:href="#SVGID_1_"  style="overflow:visible;"/>
				</clipPath>
				<g id="グループ_214" style="clip-path:url(#SVGID_00000037654104523108353700000012547974959553819552_);">
					<path id="パス_436" class="st2" d="M92-2h20.4c1,0,1.9,0.3,2.8,0.8c0.8,0.5,1.5,1.2,2,2c0.5,0.8,0.8,1.8,0.8,2.8v5.1
						c0,0.3,0,0.6-0.1,0.9c0,0.3-0.1,0.5-0.2,0.8c0.4,0.5,0.7,1.1,0.9,1.6c0.2,0.6,0.4,1.2,0.4,1.9v5.6c0,1-0.3,1.9-0.8,2.8
						c-0.5,0.8-1.2,1.5-2,2c-0.8,0.5-1.8,0.8-2.8,0.8H92V-2z M112.1,3.8H97.8v4.5h14.2V3.8z M113.1,14.2H97.8v5h15.3V14.2z"/>
					<path id="パス_437" class="st2" d="M123.2,25V-2h24.9v5.8h-19v4.7h15.3v5.8h-15.3v4.7h19V25H123.2z"/>
					<path id="パス_438" class="st2" d="M151.8,25V-2h21.4c1,0,1.9,0.2,2.8,0.8c0.8,0.5,1.5,1.2,2,2c0.5,0.8,0.8,1.8,0.8,2.8v7
						c0,1-0.3,1.9-0.8,2.8c-0.5,0.8-1.2,1.5-2,2c-0.8,0.5-1.8,0.8-2.8,0.8l-15.6,0V25L151.8,25z M172.9,3.8h-15.3v6.4h15.3V3.8z
						 M172.8,25l-7.8-9.3h7.6l6.2,7.4v2H172.8z"/>
				</g>
			</g>
		</g>
	</g>
</g>
</svg>
