<svg xmlns="http://www.w3.org/2000/svg" width="155.787" height="28" viewBox="0 0 155.787 28">
  <g id="グループ_263" data-name="グループ 263" transform="translate(-605.106 -860.003)">
    <g id="midashi" transform="translate(605.106 860.003)">
      <path id="パス_122" data-name="パス 122" d="M0,5.756a5.541,5.541,0,0,1,.778-2.9A5.874,5.874,0,0,1,2.878.778,5.576,5.576,0,0,1,5.756,0h16.45a5.55,5.55,0,0,1,2.9.778,6.094,6.094,0,0,1,2.1,2.081,5.446,5.446,0,0,1,.8,2.9V28H21.894V18.978H6.028V28H0Zm21.894.311H6.028v6.844H21.894Z" fill="#fff"/>
      <path id="パス_123" data-name="パス 123" d="M213.435,0H234.59a5.478,5.478,0,0,1,2.858.778,6.093,6.093,0,0,1,2.1,2.081,5.446,5.446,0,0,1,.8,2.9v5.25a7.341,7.341,0,0,1-.058.953,3.447,3.447,0,0,1-.214.836,6.858,6.858,0,0,1,.972,1.711,5.211,5.211,0,0,1,.389,1.944v5.794a5.475,5.475,0,0,1-.8,2.878,6.035,6.035,0,0,1-2.1,2.1,5.541,5.541,0,0,1-2.9.778H213.435ZM234.24,6.067H219.463v4.667H234.24ZM235.329,16.8H219.463v5.133h15.867Z" transform="translate(-180.885)" fill="#fff"/>
      <path id="パス_124" data-name="パス 124" d="M430.071,28a5.569,5.569,0,0,1-2.878-.778,5.817,5.817,0,0,1-2.1-2.1,5.571,5.571,0,0,1-.778-2.878V5.756a5.543,5.543,0,0,1,.778-2.9,5.872,5.872,0,0,1,2.1-2.081A5.577,5.577,0,0,1,430.071,0H446.56a5.477,5.477,0,0,1,2.858.778,6.094,6.094,0,0,1,2.1,2.081,5.445,5.445,0,0,1,.8,2.9V22.244a5.473,5.473,0,0,1-.8,2.878,6.032,6.032,0,0,1-2.1,2.1A5.47,5.47,0,0,1,446.56,28ZM446.21,6.067H430.343V21.933H446.21Z" transform="translate(-359.605)" fill="#fff"/>
      <path id="パス_125" data-name="パス 125" d="M638.33,27.222a5.818,5.818,0,0,1-2.1-2.1,5.571,5.571,0,0,1-.778-2.878V0h6.028V21.933h15.867V0h6.105V22.244a5.474,5.474,0,0,1-.8,2.878,6.031,6.031,0,0,1-2.1,2.1A5.471,5.471,0,0,1,657.7,28H641.208a5.571,5.571,0,0,1-2.878-.778" transform="translate(-538.542)" fill="#fff"/>
      <path id="パス_126" data-name="パス 126" d="M848.886,28V6.067H837.919V0h28V6.067H854.952V28Z" transform="translate(-710.132)" fill="#fff"/>
      <rect id="長方形_220" data-name="長方形 220" width="155.787" height="28" fill="none"/>
    </g>
  </g>
</svg>
