<?xml version="1.0" encoding="utf-8"?>
<!-- Generator: Adobe Illustrator 25.4.1, SVG Export Plug-In . SVG Version: 6.00 Build 0)  -->
<svg version="1.1" id="レイヤー_1" xmlns="http://www.w3.org/2000/svg" xmlns:xlink="http://www.w3.org/1999/xlink" x="0px"
	 y="0px" viewBox="0 0 389 56" style="enable-background:new 0 0 389 56;" xml:space="preserve">
<style type="text/css">
	.st0{enable-background:new    ;}
	.st1{fill:#C7B9F4;}
</style>
<g class="st0">
	<path class="st1" d="M137.7,55.9c-4.9,0-9.5-1.2-13.6-3.4c-4.1-2.3-7.4-5.5-9.8-9.6c-2.4-4.1-3.6-8.8-3.6-13.9s1.2-9.8,3.6-13.8
		c2.4-4.1,5.7-7.3,9.8-9.6c4.1-2.3,8.7-3.4,13.6-3.4c4.9,0,9.5,1.2,13.6,3.4c4.1,2.3,7.4,5.5,9.7,9.6c2.4,4.1,3.6,8.7,3.6,13.8
		c0,5.1-1.2,9.8-3.6,13.9c-2.4,4.1-5.7,7.3-9.7,9.6C147.1,54.7,142.6,55.9,137.7,55.9z M137.7,4.1c-4.6,0-8.8,1.1-12.6,3.2
		c-3.8,2.1-6.8,5.1-9.1,8.9c-2.2,3.8-3.4,8.1-3.4,12.8c0,4.7,1.1,9.1,3.4,12.8c2.2,3.8,5.3,6.8,9.1,8.9c3.8,2.1,8,3.2,12.6,3.2
		c4.6,0,8.8-1.1,12.5-3.2c3.8-2.1,6.8-5.1,9-8.9c2.2-3.8,3.3-8.1,3.3-12.9c0-4.7-1.1-9.1-3.3-12.8c-2.2-3.8-5.2-6.7-9-8.8
		C146.4,5.2,142.2,4.1,137.7,4.1z M137.7,44.6c-4.4,0-7.9-1.5-10.5-4.3c-2.6-2.8-3.9-6.7-3.9-11.4c0-4.8,1.3-8.6,3.9-11.4
		c2.6-2.8,6.1-4.3,10.5-4.3c4.3,0,7.8,1.5,10.4,4.3c2.6,2.8,3.9,6.7,3.9,11.4c0,4.7-1.3,8.5-3.9,11.3l0,0
		C145.5,43.2,142,44.6,137.7,44.6z M137.7,15.2c-3.8,0-6.8,1.2-9,3.6c-2.2,2.4-3.4,5.8-3.4,10.1c0,4.2,1.1,7.6,3.4,10
		c2.2,2.5,5.2,3.7,9,3.7c3.8,0,6.7-1.2,8.9-3.7l0,0c2.2-2.5,3.4-5.8,3.4-10c0-4.2-1.1-7.6-3.4-10C144.4,16.4,141.4,15.2,137.7,15.2z
		"/>
	<path class="st1" d="M183.7,55.4h-14.3V2.8h20.9c4.2,0,7.8,0.7,10.7,2.2c3,1.5,5.2,3.5,6.7,6.2c1.5,2.6,2.2,5.6,2.2,8.9
		c0,3.1-0.7,6-2.1,8.5l0,0c-1.4,2.6-3.7,4.7-6.6,6.3c-2.9,1.6-6.6,2.4-10.8,2.4h-6.6V55.4z M171.3,53.4h10.3V35.2h8.6
		c3.9,0,7.3-0.7,9.9-2.1c2.6-1.4,4.5-3.2,5.8-5.5l0,0c1.3-2.3,1.9-4.8,1.9-7.5c0-3-0.7-5.6-2-7.9c-1.3-2.3-3.3-4.1-5.8-5.4
		c-2.6-1.3-5.9-2-9.8-2h-18.9V53.4z M189.4,27.4h-7.7V12.7h7.7c2.6,0,4.6,0.7,5.9,1.9c1.4,1.3,2,3.1,2,5.4c0,2.3-0.7,4.1-2,5.4l0,0
		C194,26.8,192,27.4,189.4,27.4z M183.7,25.4h5.7c2.1,0,3.6-0.5,4.6-1.4l0,0c1-0.9,1.4-2.2,1.4-4c0-1.7-0.5-3-1.4-4
		c-1-0.9-2.5-1.4-4.6-1.4h-5.7V25.4z"/>
	<path class="st1" d="M247.2,55.4h-33V2.8h33v11.9h-18.6v8.2h16.5v11.5h-16.5v9.1h18.6V55.4z M216.3,53.4h29v-7.9h-18.6V32.4h16.5
		v-7.5h-16.5V12.7h18.6V4.8h-29V53.4z"/>
	<path class="st1" d="M295.6,55.4h-16.2l-10.5-19.1h-1.4v19.1h-14.3V2.8h21.7c4.1,0,7.7,0.7,10.6,2.2c3,1.5,5.2,3.5,6.7,6.1
		c1.5,2.6,2.2,5.5,2.2,8.6c0,3.6-1,6.8-3,9.6c-1.8,2.5-4.4,4.4-7.7,5.6L295.6,55.4z M280.6,53.4h11.6l-11.4-19.6l1.2-0.4
		c3.5-1,6.1-2.8,7.9-5.2c1.8-2.5,2.7-5.3,2.7-8.4c0-2.8-0.7-5.3-2-7.6c-1.3-2.2-3.3-4-5.9-5.3c-2.7-1.3-5.9-2-9.7-2h-19.7v48.5h10.3
		V34.3h4.5L280.6,53.4z M274.2,27.6h-8.6V13h8.6c2.5,0,4.5,0.7,5.8,1.9c1.3,1.3,2,3.1,2,5.3c0,2.3-0.7,4.1-2,5.4
		C278.6,26.9,276.7,27.6,274.2,27.6z M267.5,25.6h6.6c2,0,3.4-0.5,4.4-1.4c0.9-0.9,1.4-2.2,1.4-4c0-1.7-0.5-2.9-1.4-3.8
		c-0.9-0.9-2.4-1.4-4.4-1.4h-6.6V25.6z"/>
	<path class="st1" d="M350.1,55.4h-15.2l-3-8.9h-17.4l-3,8.9h-15l19-52.5h15.7L350.1,55.4z M336.4,53.4h10.9L329.7,4.8h-12.9
		l-17.6,48.5H310l3-8.9h20.3L336.4,53.4z M330.9,36.9h-15.2l7.6-22.6L330.9,36.9z M318.4,34.9h9.7l-4.9-14.4L318.4,34.9z"/>
	<path class="st1" d="M364.2,55.9c-2.4,0-4.4-0.7-6-2.2l0,0c-1.6-1.5-2.4-3.3-2.4-5.4c0-2.2,0.8-4.1,2.4-5.5c1.6-1.5,3.6-2.2,6-2.2
		c2.4,0,4.4,0.7,5.9,2.2c1.6,1.5,2.4,3.4,2.4,5.5c0,2.2-0.8,4-2.4,5.4C368.6,55.2,366.6,55.9,364.2,55.9z M364.2,42.5
		c-1.9,0-3.4,0.5-4.6,1.7c-1.2,1.1-1.7,2.5-1.7,4.1c0,1.6,0.6,2.9,1.7,4h0c1.2,1.1,2.7,1.6,4.6,1.6c1.9,0,3.4-0.5,4.5-1.6
		c1.2-1.1,1.7-2.4,1.7-4c0-1.6-0.6-3-1.7-4.1C367.6,43.1,366.1,42.5,364.2,42.5z M370.4,37.2h-12.7l-0.4-15.4h5.3
		c3.5,0,6.2-0.4,8-1.3c1.6-0.7,2.3-2,2.3-4.1c0-1.4-0.4-2.5-1.1-3.3c-0.7-0.8-1.7-1.1-3.1-1.1c-1.5,0-2.5,0.4-3.3,1.2
		c-0.8,0.8-1.2,1.9-1.2,3.3v1h-13.6l0-1c-0.1-3.1,0.6-5.9,2-8.4c1.4-2.5,3.5-4.5,6.3-6c2.7-1.4,6.1-2.2,9.9-2.2
		c5.4,0,9.7,1.4,13,4.3l0,0c3.3,2.9,5,7,5,12.1c0,4.8-1.6,8.6-4.8,11.3c-2.9,2.5-6.8,3.9-11.4,4.1L370.4,37.2z M359.7,35.2h8.9
		l0.4-5.4l0.9,0c4.6,0,8.3-1.3,11.1-3.6c2.7-2.3,4.1-5.5,4.1-9.8c0-4.6-1.4-8.1-4.3-10.6C377.8,3.3,373.9,2,369,2
		c-3.5,0-6.5,0.7-9,1.9c-2.4,1.3-4.3,3-5.5,5.2c-1.1,1.9-1.7,4.1-1.7,6.4h9.7c0.2-1.5,0.7-2.7,1.7-3.7c1.2-1.2,2.7-1.8,4.7-1.8
		c1.9,0,3.4,0.6,4.5,1.8c1.1,1.2,1.6,2.7,1.6,4.6c0,2.8-1.2,4.8-3.5,5.9c-2.1,1-5,1.5-8.9,1.5h-3.3L359.7,35.2z"/>
</g>
</svg>
