<?xml version="1.0" encoding="utf-8"?>
<!-- Generator: Adobe Illustrator 25.4.1, SVG Export Plug-In . SVG Version: 6.00 Build 0)  -->
<svg version="1.1" id="レイヤー_1" xmlns="http://www.w3.org/2000/svg" xmlns:xlink="http://www.w3.org/1999/xlink" x="0px"
	 y="0px" viewBox="0 0 562 55" style="enable-background:new 0 0 562 55;" xml:space="preserve">
<style type="text/css">
	.st0{fill:#FFFFFF;}
</style>
<g id="midashi" transform="translate(262.629 -7.419) rotate(90)">
	<g id="MEMBER" transform="translate(9.419 205.897) rotate(-90)">
		<path id="パス_433" class="st0" d="M97.3-2L78.4,20.2L59.4-2H47v54.9h12V16.1l19.3,22.5l19.3-22.6v36.8h12.1V-2H97.3z"/>
		<path id="パス_434" class="st0" d="M117.7-2v54.9h51.7V41h-39.5v-9.6h31.8V19.5h-31.8V9.9h39.5V-2H117.7z"/>
		<path id="パス_435" class="st0" d="M224.5-2l-18.9,22.2L186.7-2h-12.4v54.9h12V16.1l19.3,22.5l19.3-22.6v36.8H237V-2H224.5z"/>
		<g id="グループ_215">
			<g>
				<g id="グループ_214">
					<path id="パス_436" class="st0" d="M245.7-2h41.5c2,0,3.9,0.5,5.6,1.5c1.7,1,3.1,2.4,4.1,4.1c1,1.7,1.6,3.7,1.6,5.7v10.3
						c0,0.6,0,1.2-0.1,1.9c-0.1,0.6-0.2,1.1-0.4,1.6c0.8,1,1.4,2.2,1.9,3.4c0.5,1.2,0.8,2.5,0.8,3.8v11.4c0,2-0.5,3.9-1.6,5.6
						c-1,1.7-2.4,3.1-4.1,4.1c-1.7,1-3.7,1.5-5.7,1.5h-43.5V-2z M286.5,9.9h-29V19h29V9.9z M288.6,30.9h-31.1V41h31.1V30.9z"/>
					<path id="パス_437" class="st0" d="M309.1,52.9V-2h50.7V9.9h-38.7v9.6h31.2v11.9h-31.2V41h38.7v11.9H309.1z"/>
					<path id="パス_438" class="st0" d="M367.3,52.9V-1.9h43.5c2,0,4,0.5,5.7,1.5c1.7,1,3.1,2.4,4.1,4.1c1,1.7,1.6,3.7,1.6,5.6
						v14.2c0,2-0.5,3.9-1.6,5.6c-1,1.7-2.4,3.1-4.1,4.1c-1.7,1-3.7,1.5-5.7,1.5l-31.7,0.1v18L367.3,52.9z M410.3,9.9h-31.1v13h31.1
						V9.9z M410,52.9l-15.9-19h15.5l12.7,14.9v4H410z"/>
				</g>
			</g>
		</g>
	</g>
</g>
</svg>
