<?xml version="1.0" encoding="utf-8"?>
<!-- Generator: Adobe Illustrator 25.4.1, SVG Export Plug-In . SVG Version: 6.00 Build 0)  -->
<svg version="1.1" id="レイヤー_1" xmlns="http://www.w3.org/2000/svg" xmlns:xlink="http://www.w3.org/1999/xlink" x="0px"
	 y="0px" viewBox="0 0 389 54" style="enable-background:new 0 0 389 54;" xml:space="preserve">
<style type="text/css">
	.st0{enable-background:new    ;}
	.st1{fill:#A2DDF1;}
</style>
<g class="st0">
	<path class="st1" d="M37.7,53.1H0V42.4l20.7-29.8H0V0.6h37.7v10.7L16.9,41h20.8V53.1z M2,51.1h33.7V43H13l22.7-32.4v-8H2v8.1h22.5
		L2,43.1V51.1z"/>
	<path class="st1" d="M58.1,53.1H43.8V0.6h14.3V53.1z M45.8,51.1h10.3V2.6H45.8V51.1z"/>
	<path class="st1" d="M79.3,53.1H65V0.6H86c4.2,0,7.8,0.7,10.7,2.2c3,1.5,5.2,3.5,6.7,6.2c1.5,2.6,2.2,5.6,2.2,8.9
		c0,3.1-0.7,6-2.1,8.5l0,0c-1.4,2.6-3.7,4.7-6.6,6.3C93.9,34.2,90.2,35,86,35h-6.6V53.1z M67,51.1h10.3V33H86c3.9,0,7.3-0.7,9.9-2.1
		c2.6-1.4,4.5-3.2,5.8-5.5l0,0c1.3-2.3,1.9-4.8,1.9-7.5c0-3-0.7-5.6-2-7.9c-1.3-2.3-3.3-4.1-5.8-5.4c-2.6-1.3-5.9-2-9.8-2H67V51.1z
		 M85,25.2h-7.7V10.5H85c2.6,0,4.6,0.7,5.9,1.9c1.4,1.3,2,3.1,2,5.4c0,2.3-0.7,4.1-2,5.4l0,0C89.6,24.5,87.6,25.2,85,25.2z
		 M79.3,23.2H85c2.1,0,3.6-0.5,4.6-1.4v0c1-0.9,1.4-2.2,1.4-4c0-1.7-0.5-3-1.4-4c-1-0.9-2.5-1.4-4.6-1.4h-5.7V23.2z"/>
	<path class="st1" d="M159.9,53.1h-15.2l-3-8.9h-17.4l-3,8.9h-15l19-52.5h15.7L159.9,53.1z M146.1,51.1H157L139.5,2.6h-12.9
		l-17.6,48.5h10.7l3-8.9h20.3L146.1,51.1z M140.6,34.7h-15.2L133,12L140.6,34.7z M128.2,32.7h9.7L133,18.3L128.2,32.7z"/>
	<path class="st1" d="M210.2,53.1h-13.9l-19.1-28.8v28.8H163V0.6h13.9l19.1,29v-29h14.3V53.1z M197.4,51.1h10.8V2.6h-10.3v33.7
		L175.8,2.6H165v48.5h10.3V17.6L197.4,51.1z"/>
	<path class="st1" d="M241.8,53.5c-5.1,0-9.8-1.1-13.8-3.4c-4.1-2.3-7.3-5.5-9.5-9.5c-2.3-4-3.4-8.7-3.4-13.8
		c0-5.1,1.1-9.8,3.4-13.8c2.3-4.1,5.5-7.3,9.5-9.5c4-2.3,8.7-3.4,13.8-3.4c6.2,0,11.6,1.5,15.9,4.6c4.3,3.1,7.2,7.3,8.6,12.7
		l0.3,1.3h-15.5l-0.3-0.5c-0.8-1.5-2-2.6-3.5-3.4c-1.6-0.8-3.4-1.2-5.5-1.2c-3.7,0-6.6,1.2-8.8,3.6c-2.2,2.4-3.3,5.7-3.3,9.8
		c0,4.4,1.2,7.8,3.5,10.2c2.3,2.4,5.5,3.6,9.7,3.6c2.8,0,5.2-0.7,7.1-2.1c1.6-1.2,2.8-2.8,3.7-4.8h-15.2V22.6h28.8l0,12.7
		c-0.9,3.2-2.6,6.2-4.8,8.9c-2.3,2.7-5.2,5-8.7,6.7C250.2,52.6,246.2,53.5,241.8,53.5z M241.8,2c-4.8,0-9.1,1.1-12.8,3.1
		c-3.7,2.1-6.6,5-8.7,8.8c-2.1,3.7-3.1,8.1-3.1,12.9c0,4.8,1.1,9.1,3.1,12.8c2.1,3.7,5,6.6,8.8,8.7c3.7,2.1,8.1,3.1,12.9,3.1
		c4.1,0,7.7-0.8,10.9-2.3c3.2-1.6,5.9-3.6,8-6.1c2.1-2.5,3.5-5.2,4.4-8.1V24.6h-24.8v7.1h16L256,33c-1,3.1-2.7,5.5-4.9,7.1
		c-2.3,1.7-5,2.5-8.3,2.5c-4.7,0-8.4-1.4-11.1-4.2c-2.7-2.8-4.1-6.7-4.1-11.6c0-4.6,1.3-8.4,3.9-11.2c2.6-2.8,6.1-4.2,10.3-4.2
		c2.5,0,4.6,0.5,6.5,1.4c1.7,0.9,3.1,2.1,4,3.7H264c-1.4-4.3-3.9-7.8-7.5-10.4C252.5,3.4,247.6,2,241.8,2z"/>
</g>
</svg>
