<?xml version="1.0" encoding="utf-8"?>
<!-- Generator: Adobe Illustrator 25.4.1, SVG Export Plug-In . SVG Version: 6.00 Build 0)  -->
<svg version="1.1" id="レイヤー_1" xmlns="http://www.w3.org/2000/svg" xmlns:xlink="http://www.w3.org/1999/xlink" x="0px"
	 y="0px" viewBox="0 0 34 34" style="enable-background:new 0 0 34 34;" xml:space="preserve">
<style type="text/css">
	.st0{enable-background:new    ;}
	.st1{fill:#D7B0F3;}
</style>
<g class="st0">
	<path class="st1" d="M23.4,33.6l-3.6-4.8c-1.1,0.2-2.1,0.3-3.1,0.3c-2.6,0-5.1-0.6-7.3-1.8s-3.9-2.9-5.2-5.1s-1.9-4.7-1.9-7.4
		c0-2.7,0.6-5.2,1.9-7.4s3-3.9,5.2-5.1s4.6-1.8,7.3-1.8c2.6,0,5.1,0.6,7.3,1.8s3.9,2.9,5.2,5.1s1.9,4.7,1.9,7.4
		c0,2.4-0.5,4.6-1.5,6.6c-1,2-2.3,3.6-4.1,4.9l6.2,7.4H23.4z M11.3,20.7c1.3,1.5,3.2,2.2,5.4,2.2c2.2,0,4-0.7,5.4-2.2
		c1.3-1.5,2-3.5,2-5.9c0-2.5-0.7-4.5-2-5.9c-1.3-1.5-3.1-2.2-5.4-2.2c-2.3,0-4.1,0.7-5.4,2.2c-1.3,1.5-2,3.5-2,6
		C9.3,17.2,10,19.2,11.3,20.7z"/>
</g>
</svg>
