<?xml version="1.0" encoding="utf-8"?>
<!-- Generator: Adobe Illustrator 25.4.1, SVG Export Plug-In . SVG Version: 6.00 Build 0)  -->
<svg version="1.1" id="レイヤー_1" xmlns="http://www.w3.org/2000/svg" xmlns:xlink="http://www.w3.org/1999/xlink" x="0px"
	 y="0px" viewBox="0 0 369 54" style="enable-background:new 0 0 369 54;" xml:space="preserve">
<style type="text/css">
	.st0{enable-background:new    ;}
	.st1{fill:#D7B0F3;}
</style>
<g class="st0">
	<path class="st1" d="M42.4,53.3H26.2L15.7,34.2h-1.4v19.1H0V0.7h21.7c4.1,0,7.7,0.7,10.6,2.2c3,1.5,5.2,3.5,6.7,6.1
		c1.5,2.6,2.2,5.5,2.2,8.6c0,3.6-1,6.8-3,9.6c-1.8,2.5-4.4,4.4-7.7,5.6L42.4,53.3z M27.4,51.3h11.6L27.5,31.7l1.2-0.4
		c3.5-1,6.1-2.8,7.9-5.2c1.8-2.5,2.7-5.3,2.7-8.4c0-2.8-0.7-5.3-2-7.6C36,7.8,34,6,31.4,4.7c-2.7-1.3-5.9-2-9.7-2H2v48.5h10.3V32.2
		h4.5L27.4,51.3z M20.9,25.5h-8.6V10.9h8.6c2.5,0,4.5,0.7,5.8,1.9c1.3,1.3,2,3.1,2,5.3c0,2.3-0.7,4.1-2,5.4
		C25.4,24.8,23.5,25.5,20.9,25.5z M14.3,23.5h6.6c2,0,3.4-0.5,4.4-1.4c0.9-0.9,1.4-2.2,1.4-4c0-1.7-0.5-2.9-1.4-3.8
		c-0.9-0.9-2.4-1.4-4.4-1.4h-6.6V23.5z"/>
	<path class="st1" d="M71.8,53.8c-4.9,0-9.5-1.2-13.6-3.4c-4.1-2.3-7.4-5.5-9.8-9.6c-2.4-4.1-3.6-8.8-3.6-13.9s1.2-9.8,3.6-13.8
		c2.4-4.1,5.7-7.3,9.8-9.6C62.4,1.2,66.9,0,71.8,0c4.9,0,9.5,1.2,13.6,3.4c4.1,2.3,7.4,5.5,9.7,9.6c2.4,4.1,3.6,8.7,3.6,13.8
		c0,5.1-1.2,9.8-3.6,13.9s-5.7,7.3-9.7,9.6C81.3,52.6,76.8,53.8,71.8,53.8z M71.8,2c-4.6,0-8.8,1.1-12.6,3.2
		c-3.8,2.1-6.8,5.1-9.1,8.9c-2.2,3.8-3.4,8.1-3.4,12.8c0,4.7,1.1,9.1,3.4,12.8c2.2,3.8,5.3,6.8,9.1,8.9c3.8,2.1,8,3.2,12.6,3.2
		c4.6,0,8.8-1.1,12.5-3.2c3.8-2.1,6.8-5.1,9-8.9c2.2-3.8,3.3-8.1,3.3-12.9c0-4.7-1.1-9.1-3.3-12.8c-2.2-3.8-5.2-6.7-9-8.8
		C80.6,3.1,76.4,2,71.8,2z M71.8,42.5c-4.4,0-7.9-1.5-10.5-4.3c-2.6-2.8-3.9-6.7-3.9-11.4c0-4.8,1.3-8.6,3.9-11.4
		c2.6-2.8,6.1-4.3,10.5-4.3c4.3,0,7.8,1.5,10.4,4.3c2.6,2.8,3.9,6.7,3.9,11.4c0,4.7-1.3,8.5-3.9,11.3C79.7,41.1,76.2,42.5,71.8,42.5
		z M71.8,13.2c-3.8,0-6.8,1.2-9,3.6c-2.2,2.4-3.4,5.8-3.4,10.1c0,4.2,1.1,7.6,3.4,10c2.2,2.5,5.2,3.7,9,3.7c3.8,0,6.7-1.2,8.9-3.7
		l0,0c2.2-2.5,3.4-5.8,3.4-10c0-4.2-1.1-7.6-3.4-10C78.5,14.4,75.6,13.2,71.8,13.2z"/>
	<path class="st1" d="M153.5,53.3h-15.2l-3-8.9h-17.4l-3,8.9h-15l19-52.5h15.7L153.5,53.3z M139.7,51.3h10.9L133.1,2.7h-12.9
		l-17.6,48.5h10.7l3-8.9h20.3L139.7,51.3z M134.2,34.8H119l7.6-22.6L134.2,34.8z M121.8,32.8h9.7l-4.9-14.4L121.8,32.8z"/>
	<path class="st1" d="M176.5,53.3h-19.9V0.7h19.9c5.5,0,10.3,1.1,14.4,3.3l0,0c4.1,2.2,7.4,5.3,9.7,9.3c2.3,4,3.4,8.6,3.4,13.7
		c0,5.1-1.1,9.7-3.4,13.7c-2.3,4-5.5,7.1-9.7,9.3C186.8,52.2,182,53.3,176.5,53.3z M158.6,51.3h17.9c5.1,0,9.6-1,13.5-3.1
		c3.8-2,6.8-4.9,8.9-8.5C201,36,202,31.7,202,27c0-4.8-1.1-9.1-3.1-12.7c-2.1-3.6-5.1-6.5-8.9-8.5c-3.8-2-8.4-3.1-13.5-3.1h-17.9
		V51.3z M175.7,42.6h-6.8V11.2h6.8c4.9,0,8.8,1.4,11.6,4.2c2.8,2.8,4.2,6.7,4.2,11.6c0,4.9-1.4,8.8-4.2,11.5
		C184.5,41.2,180.6,42.6,175.7,42.6z M170.9,40.6h4.8c4.4,0,7.8-1.2,10.2-3.5c2.4-2.3,3.6-5.7,3.6-10.1c0-4.4-1.2-7.8-3.6-10.2
		c-2.4-2.4-5.8-3.6-10.2-3.6h-4.8V40.6z"/>
	<path class="st1" d="M268.2,53.3h-14.3V27.5l-9.6,25.8h-11.3l-9.7-25.9v25.9h-14.3V0.7h16.2L238.7,34L252,0.7h16.1V53.3z
		 M255.9,51.3h10.3V2.7h-12.8l-14.7,36.7L223.8,2.7h-12.9v48.5h10.3V21.9l1.9-0.4l11.1,29.7h8.5l11.1-29.7l1.9,0.3V51.3z"/>
	<path class="st1" d="M325,53.3h-15.2l-3-8.9h-17.4l-3,8.9h-15l19-52.5H306L325,53.3z M311.2,51.3h10.9L304.6,2.7h-12.9l-17.6,48.5
		h10.7l3-8.9h20.3L311.2,51.3z M305.7,34.8h-15.2l7.6-22.6L305.7,34.8z M293.3,32.8h9.7l-4.9-14.4L293.3,32.8z"/>
	<path class="st1" d="M342.4,53.3h-14.3V0.7H349c4.2,0,7.8,0.7,10.7,2.2c3,1.5,5.2,3.5,6.7,6.2c1.5,2.6,2.2,5.6,2.2,8.9
		c0,3.1-0.7,6-2.1,8.5l0,0c-1.4,2.6-3.7,4.7-6.6,6.3c-2.9,1.6-6.6,2.4-10.8,2.4h-6.6V53.3z M330.1,51.3h10.3V33.1h8.6
		c3.9,0,7.3-0.7,9.9-2.1c2.6-1.4,4.5-3.2,5.8-5.5l0,0c1.3-2.3,1.9-4.8,1.9-7.5c0-3-0.7-5.6-2-7.9c-1.3-2.3-3.3-4.1-5.8-5.4
		c-2.6-1.3-5.9-2-9.8-2h-18.9V51.3z M348.1,25.3h-7.7V10.7h7.7c2.6,0,4.6,0.7,5.9,1.9c1.4,1.3,2,3.1,2,5.4c0,2.3-0.7,4.1-2,5.4
		C352.7,24.7,350.7,25.3,348.1,25.3z M342.4,23.3h5.7c2.1,0,3.6-0.5,4.6-1.4l0,0c1-0.9,1.4-2.2,1.4-4c0-1.7-0.5-3-1.4-4
		c-1-0.9-2.5-1.4-4.6-1.4h-5.7V23.3z"/>
</g>
</svg>
