<svg xmlns="http://www.w3.org/2000/svg" xmlns:xlink="http://www.w3.org/1999/xlink" width="68" height="68" viewBox="0 0 68 68">
  <defs>
    <clipPath id="clip-path">
      <rect id="長方形_202" data-name="長方形 202" width="35" height="35"/>
    </clipPath>
  </defs>
  <g id="tw" transform="translate(-65 -2245)">
    <circle id="楕円形_6" data-name="楕円形 6" cx="34" cy="34" r="34" transform="translate(65 2245)" fill="#fff"/>
    <g id="マスクグループ_5" data-name="マスクグループ 5" transform="translate(82 2263)" clip-path="url(#clip-path)">
      <path id="Icon_awesome-twitter" data-name="Icon awesome-twitter" d="M29.662,10.187c.021.3.021.6.021.9,0,9.111-6.818,19.608-19.278,19.608A18.914,18.914,0,0,1,0,27.6a13.784,13.784,0,0,0,1.636.085,13.425,13.425,0,0,0,8.412-2.944,6.8,6.8,0,0,1-6.335-4.779,8.4,8.4,0,0,0,1.28.107,7.053,7.053,0,0,0,1.783-.235,6.864,6.864,0,0,1-5.433-6.764v-.085a6.737,6.737,0,0,0,3.063.875,6.98,6.98,0,0,1-2.1-9.217,19.155,19.155,0,0,0,13.971,7.212,7.907,7.907,0,0,1-.168-1.579,6.831,6.831,0,0,1,6.776-6.892,6.707,6.707,0,0,1,4.951,2.176,13.2,13.2,0,0,0,4.3-1.664,6.853,6.853,0,0,1-2.979,3.8,13.4,13.4,0,0,0,3.9-1.067,14.7,14.7,0,0,1-3.4,3.563Z" transform="translate(1.437 0.931)"/>
    </g>
  </g>
</svg>
