<?xml version="1.0" encoding="utf-8"?>
<!-- Generator: Adobe Illustrator 25.4.1, SVG Export Plug-In . SVG Version: 6.00 Build 0)  -->
<svg version="1.1" id="レイヤー_1" xmlns="http://www.w3.org/2000/svg" xmlns:xlink="http://www.w3.org/1999/xlink" x="0px"
	 y="0px" viewBox="0 0 68 68" style="enable-background:new 0 0 68 68;" xml:space="preserve">
<style type="text/css">
	.st0{fill:#C40001;}
	.st1{fill:none;}
	.st2{fill:#FFFFFF;}
</style>
<g id="yt" transform="translate(-154 -2245)">
	<circle id="楕円形_7" class="st0" cx="188" cy="2279" r="34"/>
	<g id="グループ_59" transform="translate(170.966 2261)">
		<rect id="長方形_32" x="0" class="st1" width="35" height="35"/>
		<path id="Icon_awesome-youtube" class="st2" d="M33.3,10.5c-0.4-1.4-1.5-2.5-2.9-2.9C27.8,7,17.4,7,17.4,7S7.1,7,4.5,7.6
			C3.1,8,2,9.1,1.6,10.5c-0.5,2.6-0.7,5.2-0.7,7.8c0,2.6,0.2,5.2,0.7,7.8c0.4,1.4,1.5,2.5,2.9,2.8c2.6,0.7,12.9,0.7,12.9,0.7
			s10.3,0,12.9-0.7c1.4-0.3,2.5-1.4,2.9-2.8c0.5-2.6,0.7-5.2,0.7-7.8C34,15.7,33.8,13.1,33.3,10.5z M14,23.1v-9.6l8.6,4.8
			C22.7,18.3,14,23.1,14,23.1z"/>
	</g>
</g>
</svg>
