<svg xmlns="http://www.w3.org/2000/svg" width="68" height="68" viewBox="0 0 68 68">
  <g id="yt" transform="translate(-154 -2245)">
    <circle id="楕円形_7" data-name="楕円形 7" cx="34" cy="34" r="34" transform="translate(154 2245)" fill="#fff"/>
    <g id="グループ_59" data-name="グループ 59" transform="translate(170.966 2261)">
      <rect id="長方形_32" data-name="長方形 32" width="35" height="35" transform="translate(0.034)" fill="none"/>
      <path id="Icon_awesome-youtube" data-name="Icon awesome-youtube" d="M33.454,8.043a4.1,4.1,0,0,0-2.926-2.866C27.947,4.5,17.6,4.5,17.6,4.5s-10.349,0-12.93.677A4.1,4.1,0,0,0,1.742,8.043a41.335,41.335,0,0,0-.692,7.8,41.335,41.335,0,0,0,.692,7.8,4.044,4.044,0,0,0,2.926,2.82c2.581.677,12.93.677,12.93.677s10.349,0,12.93-.677a4.044,4.044,0,0,0,2.926-2.82,41.335,41.335,0,0,0,.692-7.8,41.335,41.335,0,0,0-.692-7.8ZM14.213,20.634V11.057l8.65,4.789-8.65,4.788Z" transform="translate(-0.179 2.468)"/>
    </g>
  </g>
</svg>
